<?xml version="1.0" encoding="UTF-8" standalone="no"?>
<svg
    id="Layer_1"
    data-name="Layer 1"
    viewBox="0 0 391.95999 94.010002"
    version="1.1"
    width="391.95999"
    height="94.010002"
    xmlns="http://www.w3.org/2000/svg">
  <defs
      id="defs4">
    <style
        id="style2">.cls-1{fill:#009ade;}.cls-2{fill:#003764;}.cls-3{fill:#ff7f40;}.cls-4{fill:none;}
    </style>
  </defs>
  <polygon
      class="cls-1"
      points="116.09,94.26 108.94,94.26 108.94,87.06 105.31,87.06 105.31,97.84 116.09,97.84 "
      id="polygon6"
      transform="translate(-4.1400054,-73.61)"/>
  <polygon
      class="cls-2"
      points="119.72,83.42 119.72,94.26 117.94,94.26 117.94,97.84 123.3,97.84 123.3,79.85 105.31,79.85 105.31,85.2 108.88,85.2 108.88,83.42 "
      id="polygon8"
      transform="translate(-4.1400054,-73.61)"/>
  <path
      class="cls-2"
      d="m 123.93998,6.39 h 5.49 v 13.2 h 7.85 v 4.53 h -13.34 z"
      id="path10"/>
  <path
      class="cls-2"
      d="m 139.63998,6.39 h 13.78 v 4.53 h -8.3 v 2.27 h 7.08 v 4.2 h -7.08 v 6.76 h -5.48 z"
      id="path12"/>
  <path
      class="cls-1"
      d="m 167.51998,24.29 h -10 V 6.39 h 10 v 1.15 h -8.65999 v 6.76 h 8.16999 v 1.09 h -8.16999 v 7.66 h 8.68 z"
      id="path14"/>
  <path
      class="cls-1"
      d="m 184.85999,24.29 h -1.28001 L 172.85999,8.39 h -0.13 c 0.13,1.92 0.13,3.32 0.13,4.28 v 11.62 h -1.2 V 6.39 h 1.28 l 10.78,15.89 h 0.06 c -0.06,-1.47 -0.12,-2.87 -0.12,-4.21 V 6.39 h 1.2 z"
      id="path16"/>
  <path
      class="cls-1"
      d="m 199.91998,24.29 h -9.95 V 6.39 h 9.95 v 1.15 h -8.67 v 6.76 h 8.16 v 1.09 h -8.16 v 7.66 h 8.67 z"
      id="path18"/>
  <path
      class="cls-1"
      d="m 205.34998,16.51 v 7.78 h -1.28 V 6.39 h 4.34 a 8.2,8.2 0 0 1 5,1.22 4.32,4.32 0 0 1 1.59,3.7 4.86,4.86 0 0 1 -1,3.06 5.31,5.31 0 0 1 -2.93,1.78 l 4.91,8.17 h -1.53 l -4.59,-7.81 z m 0,-1.09 h 3.44 a 5.41,5.41 0 0 0 3.57,-1 3.67,3.67 0 0 0 1.28,-3 3.56,3.56 0 0 0 -1.21,-3 6.8,6.8 0 0 0 -4.08,-1 h -3 z"
      id="path20"/>
  <path
      class="cls-1"
      d="m 226.14998,15.1 h 6.57 v 8 a 15.27,15.27 0 0 1 -5.81,1.08 c -2.81,0 -5,-0.76 -6.44,-2.36 a 9.34,9.34 0 0 1 -2.24,-6.63 10.11,10.11 0 0 1 1.09,-4.72 7.61,7.61 0 0 1 3.19,-3.19 9.77,9.77 0 0 1 4.78,-1.15 12.57,12.57 0 0 1 5.23,1.08 l -0.51,1.09 a 11.4,11.4 0 0 0 -4.78,-1.09 7.11,7.11 0 0 0 -5.55,2.18 8.2,8.2 0 0 0 -2,5.74 c 0,2.62 0.64,4.6 2,5.94 1.36,1.34 3.19,2 5.74,2 a 11.11,11.11 0 0 0 4.14,-0.7 v -6.25 h -5.29 v -1 z"
      id="path22"/>
  <path
      class="cls-1"
      d="m 241.32998,16.12 5.29,-9.73 h 1.34 l -6,10.91 v 6.89 h -1.28 v -6.8 l -6.06,-11 h 1.47 z"
      id="path24"/>
  <path
      class="cls-3"
      d="m 111.85999,80.9 c -7.73001,0 -12.820005,-4.64 -12.820005,-20.1 0,-10.82 3.999995,-17.65 12.819995,-17.65 8.82,0 12.82,6.83 12.82,17.65 -0.03,15.53 -4.99,20.1 -12.81999,20.1 z m 0,-33.43 c -5.22,0 -7.54001,4.12 -7.54001,14.94 0,8.44 1.61,14.17 7.54001,14.17 5.92999,0 7.54,-5.73 7.54,-14.17 -0.03,-10.82 -2.22,-14.94 -7.54,-14.94 z"
      id="path26"/>
  <path
      class="cls-3"
      d="m 137.66998,92.05 h -5.09 V 44.12 h 4.89 v 4 h 0.13 a 8.53,8.53 0 0 1 7.41,-5 c 9.08,0 11.73,9.15 11.73,16.49 0,10.18 -1.81,21.26 -11.47,21.26 -3.61,0 -5.67,-1.8 -7.47,-4.7 h -0.13 z m 6.76,-44.58 c -6.63,0 -6.76,9.4 -6.76,14.49 0,5.09 -0.2,14.62 6.83,14.62 5.28,0 7,-5.54 7,-15.2 -0.05,-4.7 -0.56,-13.91 -7.07,-13.91 z"
      id="path28"/>
  <path
      class="cls-3"
      d="m 185.33998,68.02 c 0.32,7 -3.28,12.88 -10.82,12.88 -6.77,0 -11.59999,-4.51 -11.59999,-18.94 0,-7.54 2,-18.81 11.47,-18.81 11.59999,0 10.94999,10.95 11.21,19.32 h -17.39 c 0.12,4.84 -0.71,14.11 6.44,14.11 4.89,0 6.25,-4.51 5.92,-8.56 z m -5,-9.73 c -0.19999,-4.19 0.06,-10.82 -5.87,-10.82 -5.93,0 -6.05,6.57 -6.24,10.82 z"
      id="path30"/>
  <path
      class="cls-3"
      d="m 198.41998,48.04 h 0.13 c 2.45,-3.09 5.09,-4.89 8.95,-4.89 5.35,0 8.83,2.83 8.83,9.15 v 27.63 h -5.09 V 53.71 c 0,-3.73 -1.22,-6.24 -5.35,-6.24 a 7.27,7.27 0 0 0 -5,2 c -2.06,1.87 -2.32,3.93 -2.32,6.51 v 24 h -5.11 V 44.12 h 5 z"
      id="path32"/>
  <path
      class="cls-1"
      d="M 226.31998,79.93 V 31.62 h 5.34 V 75.1 h 19.72 v 4.83 z"
      id="path34"/>
  <path
      class="cls-1"
      d="M 257.94998,79.93 V 31.62 h 24.16001 v 4.83 h -18.81001 v 16 h 17.65 v 4.83 h -17.65 v 17.84 h 18.94 v 4.83 z"
      id="path36"/>
  <path
      class="cls-1"
      d="m 285.97999,79.93 10.56,-48.31 h 13.66 l 10.5,48.31 h -11.47 l -1.61001,-9.4 h -8.88999 l -1.35001,9.4 z m 17.38999,-39.54 h -0.13 l -3.27999,21.64 h 6.57 z"
      id="path38"/>
  <path
      class="cls-1"
      d="M 324.17998,79.93 V 31.62 h 12.31 c 4.12001,0 9.08,0.13 12.75,2.25 4.38,2.58 5.09,7.28 5.09,11.92 v 21.45 c -0.06,4.83 -1.55,8.38 -4.83,10.44 -3,1.93 -6.57,2.25 -10.05,2.25 z m 11.34,-8.69 c 7.6,0.51 7.67,-2.58 7.47,-9 V 46.39 c -0.06,-5.66 -1.93,-6 -7.47,-6.12 z"
      id="path40"/>
  <path
      class="cls-1"
      d="m 371.07998,79.93 h -11.34 V 31.62 h 16.56 c 9.28,0 13.92001,3.73 13.92001,13.33 0,5.16 -1.23001,8.83 -6,11 v 0.13 a 6.66,6.66 0 0 1 5.64,6.31 c 0.31999,3.86 0.38999,12.17 1,15.26 a 4.17,4.17 0 0 0 1.1,1.68 v 0.64 h -12.37 a 10.08,10.08 0 0 1 -0.65,-2.77 c -0.19,-4.25 0.07,-8.24 -0.26,-11.21 -0.33,-2.97 -1.22,-4.89 -3.86,-5.09 h -3.74 z m 0,-27.76 h 3.87 c 3.28,0 4.06,-3 4.06,-6 0,-5.74 -2.39,-6 -7.93,-5.87 z"
      id="path42"/>
  <path
      class="cls-4"
      d="m 81.639995,86.77 a 3.45,3.45 0 1 0 -3.45,-3.45 3.45,3.45 0 0 0 3.45,3.45 z"
      id="path44"/>
  <circle
      class="cls-4"
      cx="37.148323"
      cy="54.374371"
      r="12.83"
      transform="rotate(-9.22)"
      id="circle46"/>
  <circle
      class="cls-4"
      cx="6.0655708"
      cy="26.825121"
      r="4.8600001"
      transform="rotate(-7.02)"
      id="circle48"/>
  <path
      class="cls-1"
      d="m 81.639995,72.63 a 10.52,10.52 0 0 0 -5.27,1.4 l -16.69,-16.64 c -0.26,0.39 -0.55,0.77 -0.84,1.14 -0.29,0.37 -0.61,0.73 -0.93,1.07 l 18.13,18.13 1,-0.72 a 7.87,7.87 0 0 1 12.51,6.36 7.88,7.88 0 1 1 -15.75,0 7.76,7.76 0 0 1 0.81,-3.47 l 0.45,-0.91 -18.31,-18.33 c -0.35,0.31 -0.72,0.62 -1.1,0.9 -0.38,0.28 -0.78,0.55 -1.18,0.8 l 17.17,17.18 a 10.55,10.55 0 0 0 -0.69,3.78 10.69,10.69 0 1 0 10.69,-10.69 z"
      id="path50"/>
  <path
      class="cls-1"
      d="m 81.639995,89.59 a 6.27,6.27 0 1 0 -6.27,-6.27 6.27,6.27 0 0 0 6.27,6.27 z m 0,-9.72 a 3.45,3.45 0 1 1 -3.45,3.45 3.46,3.46 0 0 1 3.45,-3.45 z"
      id="path52"/>
  <path
      class="cls-1"
      d="m 34.629995,61.2 a 13.44,13.44 0 0 1 -1.07,-0.93 l -8.15,8 0.72,1 a 12,12 0 0 1 2.35,7.12 12.09,12.09 0 1 1 -5.19,-9.92 l 1,0.67 8.19,-8 c -0.31,-0.35 -0.61,-0.72 -0.89,-1.09 -0.28,-0.37 -0.55,-0.78 -0.81,-1.19 l -6.82,6.66 a 14.9,14.9 0 1 0 5.18,5.07 l 6.68,-6.52 c -0.44,-0.29 -0.82,-0.57 -1.19,-0.87 z"
      id="path54"/>
  <path
      class="cls-1"
      d="M 5.9199936,76.39 A 10.48,10.48 0 1 0 16.399995,65.91 10.49,10.49 0 0 0 5.9199936,76.39 Z m 2.820001,0 a 7.66,7.66 0 1 1 7.6600004,7.66 7.66,7.66 0 0 1 -7.6600004,-7.66 z"
      id="path56"/>
  <path
      class="cls-1"
      d="m 9.2899946,35.16 a 9.24,9.24 0 0 0 6.6300004,-2.77 l 13.78,8.15 a 16.67,16.67 0 0 1 2.35,-3.75 l -13.87,-8.21 a 9.15,9.15 0 0 0 0.4,-2.68 9.29,9.29 0 1 0 -9.2900004,9.28 z m 0,-14.14 a 4.86,4.86 0 1 1 -4.8600012,4.86 4.87,4.87 0 0 1 4.8600012,-4.86 z"
      id="path58"/>
  <path
      class="cls-1"
      d="m 58.859995,23.31 a 12,12 0 1 1 3.2,2.35 l -1.12,-0.57 -5.59,8.56 c 0.39,0.27 0.76,0.56 1.12,0.86 0.36,0.3 0.72,0.63 1.06,1 l 4.42,-6.78 a 14.74,14.74 0 0 0 5.55,1.07 14.9,14.9 0 1 0 -11.42,-5.33 l -4.65,7.12 c 0.45,0.17 0.89,0.36 1.32,0.56 0.43,0.2 0.84,0.43 1.25,0.66 l 5.65,-8.66 z"
      id="path60"/>
  <path
      class="cls-3"
      d="m 16.399995,68.7 a 7.66,7.66 0 1 0 7.66,7.69 7.66,7.66 0 0 0 -7.66,-7.69 z"
      id="path62"/>
  <path
      class="cls-3"
      d="m 56.459995,34.51 c -0.36,-0.3 -0.73,-0.59 -1.12,-0.86 a 15.56,15.56 0 0 0 -1.35,-0.87 c -0.41,-0.23 -0.82,-0.46 -1.25,-0.66 -0.43,-0.2 -0.87,-0.39 -1.32,-0.56 a 17.21,17.21 0 0 0 -19.37,5.21 16.67,16.67 0 0 0 -2.35,3.75 17.19,17.19 0 0 0 1,16.32 c 0.26,0.41 0.52,0.8 0.81,1.19 0.29,0.39 0.58,0.74 0.89,1.09 0.31,0.35 0.73,0.79 1.12,1.15 a 13.44,13.44 0 0 0 1.07,0.93 c 0.37,0.3 0.75,0.58 1.15,0.85 a 17.19,17.19 0 0 0 18.69,0.31 c 0.4,-0.25 0.8,-0.52 1.18,-0.8 0.38,-0.28 0.75,-0.59 1.1,-0.9 0.35,-0.31 0.79,-0.72 1.16,-1.11 0.37,-0.39 0.63,-0.7 0.93,-1.07 0.3,-0.37 0.58,-0.75 0.84,-1.14 a 17.23,17.23 0 0 0 -2.16,-21.86 c -0.3,-0.34 -0.62,-0.66 -1.02,-0.97 z m 1.74,13.21 a 12.83,12.83 0 1 1 -12.83,-12.83 12.84,12.84 0 0 1 12.83,12.83 z"
      id="path64"/>
  <path
      class="cls-3"
      d="m 67.489995,4.39 a 10.48,10.48 0 1 0 10.48,10.48 10.49,10.49 0 0 0 -10.48,-10.48 z m 0,18.14 a 7.66,7.66 0 1 1 7.66,-7.66 7.67,7.67 0 0 1 -7.66,7.66 z"
      id="path66"/>
</svg>
